<?xml version="1.0" encoding="utf-8"?>
<!-- Generator: Adobe Illustrator 19.0.0, SVG Export Plug-In . SVG Version: 6.00 Build 0)  -->
<svg version="1.1" xmlns="http://www.w3.org/2000/svg" xmlns:xlink="http://www.w3.org/1999/xlink" x="0px" y="0px"
	 viewBox="0 0 1400 980" style="enable-background:new 0 0 1400 980;" xml:space="preserve">
<style type="text/css">
	.st0{fill:#FDDE68;}
	.st1{fill:#191A1C;}
	.st2{fill:#232528;}
	.st3{fill:#111112;}
	.st4{fill:#FFFFFF;}
	.st5{fill:url(#XMLID_145_);}
	.st6{fill:#DCDBDB;}
	.st7{opacity:0.7;fill:#191A1C;}
	.st8{fill:#4C8DCB;}
	.st9{fill:#F47833;}
	.st10{fill:#C6C4C4;}
	.st11{fill:#0F1512;}
	.st12{fill:#453828;}
	.st13{fill:#F04A2F;}
	.st14{fill:#F9EE40;}
	.st15{fill:#71BF45;}
	.st16{fill:#FAA51F;}
	.st17{fill:#F19A20;}
	.st18{fill:#F19120;}
	.st19{font-family:'ArchivoBlack-Regular';}
	.st20{font-size:106.4999px;}
	.st21{font-size:92.2525px;}
	.st22{fill:#594836;}
	.st23{font-size:61.9985px;}
	.st24{fill:url(#XMLID_146_);}
	.st25{fill:none;stroke:#453828;stroke-width:5;stroke-miterlimit:10;}
	.st26{fill:#E17F26;}
	.st27{font-family:'Anton-Regular';}
	.st28{font-size:56.458px;}
	.st29{letter-spacing:11;}
	.st30{fill:#F3F3F3;}
	.st31{fill:url(#XMLID_149_);}
	.st32{fill:url(#XMLID_150_);}
	.st33{fill:url(#XMLID_151_);}
	.st34{fill:#755F4D;}
</style>
<g id="Layer_2">
	<g id="Layer_2_1_">
		<g id="Layer_1_1_">
			<rect id="XMLID_680_" x="0.3" class="st0" width="1400" height="980"/>
		</g>
	</g>
</g>
<g id="Layer_1">
	<g id="XMLID_52_">
		<path id="XMLID_511_" class="st1" d="M458.2,278.8h-354V69.2c0-3,2.4-5.3,5.3-5.3h343.3c3,0,5.3,2.4,5.3,5.3L458.2,278.8
			L458.2,278.8z"/>
		<rect id="XMLID_510_" x="119" y="81.8" class="st2" width="322.7" height="181"/>
		<path id="XMLID_509_" class="st3" d="M444.7,265.8H116.1v-187h328.6V265.8z M122,259.8h316.8V84.7H122V259.8z"/>
		<path id="XMLID_508_" class="st4" d="M454.1,317.6H108.4c-2.3,0-4.1-1.9-4.1-4.1v-34.7h354v34.7
			C458.2,315.8,456.3,317.6,454.1,317.6z"/>
		
			<linearGradient id="XMLID_145_" gradientUnits="userSpaceOnUse" x1="280.4189" y1="613.3742" x2="280.4189" y2="664.3392" gradientTransform="matrix(1 0 0 -1 0 982)">
			<stop  offset="0.3957" style="stop-color:#ECEDED"/>
			<stop  offset="0.5156" style="stop-color:#E7E7E7"/>
			<stop  offset="0.6847" style="stop-color:#F2F2F2"/>
		</linearGradient>
		<path id="XMLID_507_" class="st5" d="M239.5,317.6c0,0,1.9,28-5.4,34.6c-5.8,5.1-13.1,12.3-16.1,15.1c-0.5,0.5-0.1,1.2,0.5,1.2
			h123.9c0.6,0,1-0.8,0.5-1.2L326.7,352c0,0-6.6-4.8-4.8-34.4H239.5L239.5,317.6z"/>
		<rect id="XMLID_504_" x="217.8" y="368.6" class="st6" width="125" height="11.1"/>
		<path id="XMLID_496_" class="st7" d="M122,259.8c22.2-64.7,84.2-110.4,154.1-112c73.2-1.7,139.9,44,162.7,112.1"/>
		<rect id="XMLID_7_" x="134" y="98.7" class="st8" width="76" height="5.3"/>
		<rect id="XMLID_45_" x="134" y="158.7" class="st8" width="38" height="5.3"/>
		<rect id="XMLID_50_" x="190.8" y="172.3" class="st8" width="41.8" height="5.3"/>
		<rect id="XMLID_62_" x="158.4" y="209" class="st8" width="39.4" height="5.3"/>
		<rect id="XMLID_54_" x="181.5" y="184.8" class="st8" width="32.5" height="5.3"/>
		<rect id="XMLID_69_" x="296.6" y="223" class="st8" width="50.2" height="5.3"/>
		<rect id="XMLID_60_" x="299.3" y="196.8" class="st8" width="32.5" height="5.3"/>
		<rect id="XMLID_65_" x="330.5" y="209" class="st8" width="32.5" height="5.3"/>
		<rect id="XMLID_57_" x="337.3" y="184.8" class="st8" width="32.5" height="5.3"/>
		<rect id="XMLID_70_" x="354.8" y="223" class="st8" width="32.5" height="5.3"/>
		<rect id="XMLID_48_" x="264.3" y="158.7" class="st8" width="71.7" height="5.3"/>
		<rect id="XMLID_51_" x="238" y="172.3" class="st8" width="60" height="5.3"/>
		<rect id="XMLID_36_" x="233.9" y="112.7" class="st8" width="49.5" height="5.3"/>
		<rect id="XMLID_38_" x="157.9" y="127" class="st8" width="49.5" height="5.3"/>
		<rect id="XMLID_37_" x="289.9" y="112.7" class="st8" width="38.5" height="5.3"/>
		<rect id="XMLID_39_" x="215.5" y="127" class="st8" width="23.5" height="5.3"/>
		<rect id="XMLID_44_" x="280.3" y="141.2" class="st8" width="48" height="5.3"/>
		<rect id="XMLID_41_" x="292.8" y="127" class="st8" width="35.6" height="5.3"/>
		<rect id="XMLID_34_" x="157.9" y="112.7" class="st8" width="21.8" height="5.3"/>
		<rect id="XMLID_33_" x="260" y="98.7" class="st8" width="76" height="5.3"/>
		<rect id="XMLID_43_" x="195.9" y="141.2" class="st8" width="76" height="5.3"/>
		<rect id="XMLID_55_" x="220.6" y="184.8" class="st8" width="76" height="5.3"/>
		<rect id="XMLID_59_" x="214.3" y="196.8" class="st8" width="76" height="5.3"/>
		<rect id="XMLID_63_" x="206.3" y="209" class="st8" width="76" height="5.3"/>
		<rect id="XMLID_67_" x="179.7" y="223" class="st8" width="76" height="5.3"/>
		<rect id="XMLID_46_" x="179.7" y="158.7" class="st8" width="26.6" height="5.3"/>
		<rect id="XMLID_32_" x="215.5" y="98.7" class="st9" width="36.8" height="5.3"/>
		<rect id="XMLID_35_" x="185.5" y="112.7" class="st9" width="41.5" height="5.3"/>
		<rect id="XMLID_40_" x="245.8" y="127" class="st9" width="41.5" height="5.3"/>
		<rect id="XMLID_74_" x="157.9" y="237.3" class="st8" width="49.5" height="5.3"/>
		<rect id="XMLID_73_" x="215.5" y="237.3" class="st8" width="23.5" height="5.3"/>
		<rect id="XMLID_72_" x="292.8" y="237.3" class="st8" width="35.6" height="5.3"/>
		<rect id="XMLID_71_" x="245.8" y="237.3" class="st9" width="41.5" height="5.3"/>
		<rect id="XMLID_47_" x="214" y="158.7" class="st9" width="41.5" height="5.3"/>
		<rect id="XMLID_49_" x="158.4" y="172.3" class="st9" width="27.1" height="5.3"/>
		<rect id="XMLID_66_" x="134" y="223" class="st9" width="34.8" height="5.3"/>
		<rect id="XMLID_64_" x="290.8" y="209" class="st9" width="33.2" height="5.3"/>
		<rect id="XMLID_56_" x="303.4" y="184.8" class="st9" width="27.1" height="5.3"/>
		<rect id="XMLID_61_" x="340" y="196.8" class="st9" width="27.1" height="5.3"/>
		<rect id="XMLID_58_" x="182.3" y="196.8" class="st9" width="22.4" height="5.3"/>
		<rect id="XMLID_78_" x="299.5" y="250.5" class="st8" width="32.5" height="5.3"/>
		<rect id="XMLID_77_" x="214.5" y="250.5" class="st8" width="76" height="5.3"/>
		<rect id="XMLID_76_" x="340.3" y="250.5" class="st9" width="27.1" height="5.3"/>
		<rect id="XMLID_75_" x="182.6" y="250.5" class="st9" width="22.4" height="5.3"/>
		<rect id="XMLID_68_" x="266.5" y="223" class="st9" width="22.4" height="5.3"/>
		<rect id="XMLID_53_" x="305.6" y="172.3" class="st9" width="22.7" height="5.3"/>
		<rect id="XMLID_42_" x="157.9" y="141.2" class="st9" width="29.8" height="5.3"/>
	</g>
	<g id="XMLID_29_">
		<path id="XMLID_31_" class="st10" d="M982.2,483H672c-8.9,0-16.1,7.2-16.1,16.1v208h342.3v-208C998.3,490.2,991.1,483,982.2,483z"
			/>
		<rect id="XMLID_30_" x="602.1" y="707.1" class="st4" width="450" height="13"/>
		<path id="XMLID_17_" class="st10" d="M827.1,720L827.1,720h-225c0,0,9.7,6.1,18.3,6.1c8.5,0,203.1,0,206.6,0c0,0,0,0,0,0
			c3.6,0,198.1,0,206.6,0c8.6,0,18.3-6.1,18.3-6.1H827.1z"/>
		<path id="XMLID_9_" class="st10" d="M850.5,713.5H802c-3.6,0-6.5-2.9-6.5-6.5l0,0H857l0,0C857,710.6,854.1,713.5,850.5,713.5z"/>
		<path id="XMLID_4_" class="st11" d="M979.4,485.7H674.5c-8.9,0-16.1,7.2-16.1,16.1v205.2h336.9V501.8
			C995.4,492.9,988.2,485.7,979.4,485.7z"/>
		<rect id="XMLID_5_" x="672.6" y="502.2" class="st4" width="309.7" height="192.1"/>
		<path id="XMLID_6_" class="st10" d="M1028.5,713.9h-12.9c-0.5,0-0.8-0.4-0.8-0.8l0,0c0-0.5,0.4-0.8,0.8-0.8h12.9
			c0.5,0,0.8,0.4,0.8,0.8l0,0C1029.3,713.6,1028.9,713.9,1028.5,713.9z"/>
		<rect id="XMLID_3_" x="672.6" y="502.2" class="st12" width="309.7" height="19.6"/>
		<circle id="XMLID_10_" class="st13" cx="683.1" cy="511.2" r="4.1"/>
		<circle id="XMLID_12_" class="st14" cx="696.5" cy="511.2" r="4.1"/>
		<circle id="XMLID_13_" class="st15" cx="710.4" cy="511.2" r="4.1"/>
		<rect id="XMLID_14_" x="682" y="545.2" class="st16" width="101.2" height="142.9"/>
		<rect id="XMLID_16_" x="791.9" y="545.9" class="st17" width="101.2" height="64.9"/>
		<rect id="XMLID_18_" x="791.9" y="622.7" class="st0" width="101.2" height="64.9"/>
		<rect id="XMLID_1_" x="902" y="545.9" class="st18" width="25.7" height="142.1"/>
		<rect id="XMLID_15_" x="937.5" y="545.9" class="st0" width="25.7" height="142.1"/>
		<text id="XMLID_2_" transform="matrix(1 0 0 1 724.8659 640.5425)" class="st12 st19 st20">css</text>
	</g>
	<g id="XMLID_80_">
		<path id="XMLID_86_" class="st16" d="M729.3,241.4H555.7c-15.9,0-28.8,12.9-28.8,28.8v102.7c0,4.9,2.4,9.3,6,12.1l209.7-140.3
			C738.7,242.6,734.1,241.4,729.3,241.4z"/>
		<path id="XMLID_87_" class="st17" d="M742.7,244.7L533,385c2.5,1.9,5.7,3.1,9.1,3.1H571l-5.9,53l52.8-53h111.4
			c15.9,0,28.8-12.9,28.8-28.8v-89.1C758,259.1,751.8,249.5,742.7,244.7z"/>
		<g id="XMLID_8_">
			<path id="XMLID_84_" class="st12" d="M558.1,449.4v-48.6c0-3.9-3.1-7-7-7H534c-3.9,0-7-3.1-7-7v0c0-3.9,3.1-7,7-7h31.1
				c3.9,0,7,3.1,7,7V412c0,6.5,8,9.5,12.3,4.6l31.6-36.3c1.3-1.5,3.3-2.4,5.3-2.4h104c14.3,0,25.8-11.6,25.8-25.8v-82.4
				c0-14.3-11.6-25.8-25.8-25.8H559.8c-14.3,0-25.8,11.6-25.8,25.8v56.1c0,3.9-3.1,7-7,7l0,0c-3.9,0-7-3.1-7-7v-56.1
				c0-22,17.8-39.8,39.8-39.8h165.4c22,0,39.8,17.8,39.8,39.8V352c0,22-17.8,39.8-39.8,39.8h-97.6c-2,0-4,0.9-5.3,2.4l-52,59.7
				C566.1,458.9,558.1,455.9,558.1,449.4z"/>
		</g>
		<text id="XMLID_79_" transform="matrix(1 0 0 1 568.8477 338.3778)" class="st4 st19 st21">&lt;/&gt;</text>
		<g id="XMLID_81_">
			<path id="XMLID_82_" class="st12" d="M527,370.1L527,370.1c-3.9,0-7-3.1-7-7V354c0-3.9,3.1-7,7-7l0,0c3.9,0,7,3.1,7,7v9.1
				C534,367,530.8,370.1,527,370.1z"/>
		</g>
	</g>
	<g id="XMLID_85_">
		<path id="XMLID_94_" class="st22" d="M128.5,730.8l212.7,1.4c13.8,0,25,11.2,25,25v89.3c0,4.3-2.1,8.1-5.2,10.5L116.9,733.7
			C120.3,731.9,124.3,730.8,128.5,730.8z"/>
		<path id="XMLID_93_" class="st12" d="M120.5,735.1l240.4,122c-2.2,1.7-5,2.7-7.9,2.7H328l5.1,46.1l-45.9-46.1h-155
			c-13.8,0-25-11.2-25-25v-77.5C107.2,747.7,112.6,739.3,120.5,735.1z"/>
		<g id="XMLID_91_">
			<path id="XMLID_92_" class="st17" d="M339.2,913.2v-42.3c0-3.4,2.7-6.1,6.1-6.1h14.9c3.4,0,6.1-2.7,6.1-6.1l0,0
				c0-3.4-2.7-6.1-6.1-6.1h-27c-3.4,0-6.1,2.7-6.1,6.1v21.9c0,5.6-7,8.2-10.7,4l-27.5-31.6c-1.2-1.3-2.8-2.1-4.6-2.1H131.9
				c-12.4,0-22.5-10.1-22.5-22.5v-71.7c0-12.4,10.1-22.5,22.5-22.5h205.8c12.4,0,22.5,10.1,22.5,22.5v48.8c0,3.4,2.7,6.1,6.1,6.1h0
				c3.4,0,6.1-2.7,6.1-6.1v-48.8c0-19.1-15.5-34.7-34.7-34.7H131.9c-19.1,0-34.7,15.5-34.7,34.7v71.7c0,19.1,15.5,34.7,34.7,34.7
				h146.9c1.8,0,3.4,0.8,4.6,2.1l45.2,51.9C332.2,921.4,339.2,918.8,339.2,913.2z"/>
		</g>
		<text id="XMLID_90_" transform="matrix(1 0 0 1 138.1901 814.5475)" class="st4 st19 st23">HTML</text>
		<g id="XMLID_88_">
			<path id="XMLID_89_" class="st17" d="M366.2,844.2L366.2,844.2c3.4,0,6.1-2.7,6.1-6.1v-7.9c0-3.4-2.7-6.1-6.1-6.1h0
				c-3.4,0-6.1,2.7-6.1,6.1v7.9C360.1,841.5,362.8,844.2,366.2,844.2z"/>
		</g>
	</g>
	<g id="XMLID_95_">
		<circle id="XMLID_83_" class="st12" cx="549.8" cy="141.2" r="12.3"/>
		<circle id="XMLID_96_" class="st12" cx="609.3" cy="141.2" r="12.3"/>
		<circle id="XMLID_98_" class="st12" cx="672.9" cy="141.2" r="12.3"/>
		<circle id="XMLID_97_" class="st12" cx="732.4" cy="141.2" r="12.3"/>
	</g>
	<g id="XMLID_100_">
		<circle id="XMLID_104_" class="st4" cx="839.3" cy="856.5" r="12.3"/>
		<circle id="XMLID_103_" class="st4" cx="898.8" cy="856.5" r="12.3"/>
		<circle id="XMLID_102_" class="st4" cx="962.4" cy="856.5" r="12.3"/>
		<circle id="XMLID_101_" class="st4" cx="1021.9" cy="856.5" r="12.3"/>
	</g>
	<g id="XMLID_142_">
		<circle id="XMLID_158_" class="st4" cx="317.6" cy="484.4" r="9.3"/>
		<circle id="XMLID_155_" class="st4" cx="363" cy="484.4" r="9.3"/>
		<circle id="XMLID_152_" class="st4" cx="411.5" cy="484.4" r="9.3"/>
		<circle id="XMLID_143_" class="st4" cx="456.9" cy="484.4" r="9.3"/>
	</g>
	<g id="XMLID_165_">
		<circle id="XMLID_169_" class="st4" cx="1125.2" cy="112" r="9.3"/>
		<circle id="XMLID_168_" class="st4" cx="1170.5" cy="112" r="9.3"/>
		<circle id="XMLID_167_" class="st4" cx="1219" cy="112" r="9.3"/>
		<circle id="XMLID_166_" class="st4" cx="1264.4" cy="112" r="9.3"/>
	</g>
	<g id="XMLID_119_">
		<path id="XMLID_106_" class="st16" d="M1295.4,509.4h-201.3c-12,0-21.7-9.7-21.7-21.7V226.5c0-12,9.7-21.7,21.7-21.7h201.3
			c12,0,21.7,9.7,21.7,21.7v261.2C1317.1,499.7,1307.4,509.4,1295.4,509.4z"/>
		<linearGradient id="XMLID_146_" gradientUnits="userSpaceOnUse" x1="1148.5338" y1="206.6705" x2="1284.3101" y2="648.3162">
			<stop  offset="0.3957" style="stop-color:#ECEDED"/>
			<stop  offset="1" style="stop-color:#D7D8D8"/>
		</linearGradient>
		<polygon id="XMLID_99_" class="st24" points="1256.8,495.8 1088.7,495.8 1088.7,218.4 1300.9,218.4 1300.9,442.7 		"/>
		<rect id="XMLID_105_" x="1166.3" y="245.8" class="st25" width="57" height="29"/>
		<rect id="XMLID_107_" x="1233.9" y="323.3" class="st25" width="57" height="29"/>
		<rect id="XMLID_109_" x="1166.3" y="383.3" class="st25" width="57" height="29"/>
		<rect id="XMLID_110_" x="1166.3" y="440.3" class="st25" width="57" height="29"/>
		<rect id="XMLID_108_" x="1098.9" y="323.3" class="st25" width="57" height="29"/>
		<polygon id="XMLID_111_" class="st25" points="1194.8,314 1172.3,336.2 1194.8,358.4 1217.3,336.2 		"/>
		<line id="XMLID_112_" class="st25" x1="1194.8" y1="274.9" x2="1194.8" y2="314"/>
		<line id="XMLID_113_" class="st25" x1="1194.8" y1="357.1" x2="1194.8" y2="383.3"/>
		<line id="XMLID_115_" class="st25" x1="1174.4" y1="336.2" x2="1156.1" y2="336.2"/>
		<line id="XMLID_116_" class="st25" x1="1235.6" y1="336.2" x2="1217.3" y2="336.2"/>
		<line id="XMLID_114_" class="st25" x1="1194.8" y1="412.3" x2="1194.8" y2="438.5"/>
		<polygon id="XMLID_117_" class="st4" points="1256.9,495.8 1256.9,442.7 1300.9,442.7 		"/>
		<path id="XMLID_118_" class="st26" d="M1219.7,229.7h-49.8c-3.6,0-6.6-2.9-6.6-6.6v-23.8c0-3.6,2.9-6.6,6.6-6.6h49.8
			c3.6,0,6.6,2.9,6.6,6.6v23.8C1226.3,226.7,1223.3,229.7,1219.7,229.7z"/>
	</g>
	<g id="XMLID_124_">
		<text id="XMLID_121_" transform="matrix(0.9513 -0.3084 0.3084 0.9513 861.7525 211.8453)" class="st16 st27 st28 st29">1</text>
		<text id="XMLID_130_" transform="matrix(0.9934 0.1145 -0.1145 0.9934 916.5085 146.225)" class="st16 st27 st28 st29">1</text>
		<g id="XMLID_128_">
			<text id="XMLID_176_" transform="matrix(0.9352 -0.3542 0.3542 0.9352 960.7739 184.2888)" class="st4 st27 st28 st29">1</text>
		</g>
		<text id="XMLID_125_" transform="matrix(0.9936 0.1131 -0.1131 0.9936 880.9094 184.2893)" class="st4 st27 st28 st29">0</text>
		<g id="XMLID_129_">
			<text id="XMLID_177_" transform="matrix(0.9936 0.1131 -0.1131 0.9936 919.9094 213.5127)" class="st16 st27 st28 st29">0</text>
		</g>
		<g id="XMLID_131_">
			<text id="XMLID_178_" transform="matrix(0.6558 0.755 -0.755 0.6558 843.842 128.3011)" class="st16 st27 st28 st29">0</text>
		</g>
		<polygon id="XMLID_127_" class="st12" points="911.2,193.4 843.8,193.4 901.2,307.7 903.8,381.7 911.2,381.7 918.5,381.7 
			921.2,307.7 978.5,193.4 		"/>
	</g>
	<g id="XMLID_28_">
		<path id="XMLID_120_" class="st12" d="M1237.9,805.8h-58.2c-4.9,0-8.8-4-8.8-8.8l0,0c0-4.9,4-8.8,8.8-8.8h58.2
			c4.9,0,8.8,4,8.8,8.8l0,0C1246.7,801.9,1242.8,805.8,1237.9,805.8z"/>
		<path id="XMLID_122_" class="st12" d="M1230.6,826.2H1187c-4.9,0-8.8-4-8.8-8.8l0,0c0-4.9,4-8.8,8.8-8.8h43.6c4.9,0,8.8,4,8.8,8.8
			l0,0C1239.4,822.3,1235.4,826.2,1230.6,826.2z"/>
		<path id="XMLID_123_" class="st12" d="M1224.2,846.6h-30.9c-4.9,0-8.8-4-8.8-8.8l0,0c0-4.9,4-8.8,8.8-8.8h30.9
			c4.9,0,8.8,4,8.8,8.8l0,0C1233,842.6,1229.1,846.6,1224.2,846.6z"/>
		<path id="XMLID_126_" class="st16" d="M1268.2,704.6c-2.3-26.6-16.9-41.1-31-48.9c-17.4-9.6-39.4-9.6-56.8,0
			c-14.1,7.8-28.7,22.3-31,48.9c-4.5,51.7,26.6,47.7,29.5,82.4c0.2,2.6,2.6,4.6,5.5,4.6h24.4h24.4c2.9,0,5.3-2,5.5-4.6
			C1241.5,752.3,1272.6,756.2,1268.2,704.6z"/>
		<path id="XMLID_132_" class="st4" d="M1208.8,626.1L1208.8,626.1c-3.6,0-6.6-2.9-6.6-6.6v-44.1c0-3.6,2.9-6.6,6.6-6.6l0,0
			c3.6,0,6.6,2.9,6.6,6.6v44.1C1215.4,623.1,1212.4,626.1,1208.8,626.1z"/>
		<path id="XMLID_134_" class="st4" d="M1150.1,653.8L1150.1,653.8c-2.6,2.6-6.7,2.6-9.3,0l-31.2-31.2c-2.6-2.6-2.6-6.7,0-9.3l0,0
			c2.6-2.6,6.7-2.6,9.3,0l31.2,31.2C1152.6,647,1152.6,651.2,1150.1,653.8z"/>
		<path id="XMLID_135_" class="st4" d="M1276,661.1L1276,661.1c2.6,2.6,6.7,2.6,9.3,0l31.2-31.2c2.6-2.6,2.6-6.7,0-9.3l0,0
			c-2.6-2.6-6.7-2.6-9.3,0l-31.2,31.2C1273.4,654.3,1273.4,658.5,1276,661.1z"/>
	</g>
	<g id="XMLID_138_">
		<path id="XMLID_147_" class="st4" d="M664.3,809c-4.8-3.7-10.6-5.1-16.6-5.3c-12.3-4.6-27.7-0.4-36.5,10.4c-2.2,2.7-3.1,5.4-3.1,8
			c-5.7-4.8-11.8-9.3-19.5-8.9c-11.8,0.6-15.1,11.5-13.9,21.4c-4.3,0.7-7.9,2.8-11,6c-6.1,6.5-11.7,14.6-12.5,23.7
			c-0.8,9.5,4.2,18.1,12.3,22.9c4,2.4,8.4,3.5,12.8,3.9l95.3-69.9C670.8,816.4,668.3,812.2,664.3,809z"/>
		<path id="XMLID_148_" class="st30" d="M701.7,849.8c-2-2-4.5-3.4-7.1-4.3c-1.8-5.6-8.2-9.4-14-7.6c-3.4,1.2-7.3-0.3-8.5-3.3
			c-0.1-0.2-0.2-1.1-0.3-1.5c0.1-0.4,0.2-2.7,0.2-3.1c0.2-2.3,0.3-4.4,0.1-6.6c-0.1-0.7-0.2-1.4-0.3-2l-95.3,69.9
			c3.9,0.4,7.9,0.2,11.8-0.2c0.6,1.3,1.3,2.6,2.2,3.6c4.9,5.5,11.8,5.4,18.5,4.7c6.7-0.7,13.4-1.4,20.1-2.2
			c3.8-0.4,7.3-0.9,10.8-2.3c2.9-1.1,5.4-2.8,8.3-3.8c5.4-1.8,11.6-0.8,17.1-0.3c0.8,0.1,1.6,0,2.3-0.1c7.8,2.7,15.7-0.2,22.5-4.1
			c6.6-3.8,12.9-8.6,15.5-16C708.2,863.5,707,855.1,701.7,849.8z"/>
		<g id="XMLID_133_">
			<path id="XMLID_160_" class="st12" d="M670.5,903.6h-96.3c-8.7-0.1-26.8-6.9-32-30.4c-4.6-21,9.7-34.4,20.7-40.1
				c0.5-4.7,2.8-11.8,10.8-19c9.4-8.6,21.9-7.7,28.8-6.3c5.9-7.5,20.9-21.5,47.5-17.4c10.9,1.7,19.1,6.5,24.6,14.1
				s6.9,16.4,7.1,22.6c17.1,1.7,33,12.4,34.7,34c0.7,9.2-2.3,17.8-8.9,25.6C698.5,897.5,684.9,903.6,670.5,903.6z M574.5,890.1h96.1
				c10.5,0,20.2-4.4,26.6-12c4.3-5.1,6.2-10.2,5.7-15.9c-1.6-21.7-23.7-21.9-28-21.8l-8.2,0.3l1.3-8.1c0.4-2.6,3.2-25.2-20.2-28.8
				c-25.6-4-36.1,14.3-36.6,14.9l-2.8,5l-5.4-1.9c-0.1,0-12.9-4.4-20.3,2.3c-6.7,6.1-6.6,11.2-6.5,12l1.9,6.1l-6.2,1.7
				c-0.8,0.3-20.6,8.1-16.6,26.5C559.4,889,573.6,890.1,574.5,890.1z"/>
		</g>
		<g id="XMLID_136_">
			<path id="XMLID_141_" class="st16" d="M669.1,884.8C669.1,884.8,669.1,884.8,669.1,884.8l0-3.7c1.2-1.3,1.9-2.1,3.1-3.5
				c3.9-0.4,9.6-1.7,12.6-4.7c1.4-1.4,2.1-3.2,2.1-5.3c0-3.1-1-5.6-3-7.4c-3.6-3.3-9.7-4.2-13.9-4.3c-1.8-0.1-3.2-1.4-3.4-3.2l0,0
				c-0.2-2.1,1.5-3.8,3.6-3.8c4.8,0.2,13,1.2,18.4,6.2c3.5,3.2,5.2,7.4,5.2,12.6c0,4-1.4,7.5-4.2,10.3
				C683,884.6,670,884.8,669.1,884.8z"/>
		</g>
		<circle id="XMLID_137_" class="st16" cx="656.5" cy="849.5" r="3.5"/>
	</g>
	<g id="XMLID_11_">
		<path id="XMLID_187_" class="st17" d="M379,564.7c2.8,4.2,6.1,8.1,9.1,12.1c0.5,0.7,1.2,1,2,0.8c3.2-0.6,6.3-0.9,9.5-0.8
			c1,0,1.6-0.7,1.9-1.5c2-3.8,4-7.5,5.8-11.3c0.6-1.2,1.3-1.7,2.7-1.2c3.2,1.1,6.4,2.1,9.6,3c1.4,0.4,1.7,1.1,1.5,2.4
			c-0.6,4.3-1.2,8.5-1.8,12.7c-0.2,1.2,0.1,2,1.2,2.7c2.4,1.5,4.4,3.2,6.3,5.3c1,1.1,2,1.3,3.4,0.8c3.8-1.3,7.7-2.6,11.5-3.9
			c1.6-0.6,2.5-0.2,3.3,1.3c1.3,2.7,2.8,5.3,4.2,8c1,1.9,0.9,2.1-0.9,3.5c-3.1,2.4-6.3,4.9-9.5,7.3c-1.2,0.9-1.6,1.9-1.3,3.4
			c0.6,2.6,0.9,5.3,0.7,8c0,1.3,0.5,2,1.6,2.6c3.8,1.9,7.7,3.9,11.5,5.7c1.2,0.6,1.6,1.4,1.2,2.7c-1,3-2,6.1-2.9,9.3
			c-0.4,1.4-1.2,1.9-2.6,1.7c-4.2-0.6-8.3-1-12.5-1.7c-1.3-0.2-2.3,0.2-3,1.4c-1.4,2.2-3.1,4.4-5.1,6.2c-1,0.9-1.2,1.8-0.7,3.1
			c1.4,3.9,2.6,7.8,4,11.7c0.6,1.5,0.3,2.5-1.3,3.3c-2.8,1.4-5.6,2.8-8.3,4.4c-1.3,0.7-2.2,0.5-3.1-0.6c-2.5-3.3-5.2-6.6-7.6-9.9
			c-0.8-1.1-1.7-1.5-3.1-1.2c-2.7,0.6-5.4,0.8-8.2,0.8c-1.3,0-2,0.5-2.6,1.6c-1.8,3.8-3.9,7.7-5.7,11.5c-0.6,1.4-1.5,1.7-2.9,1.2
			c-3-1-6.1-2-9.3-2.9c-1.4-0.4-1.8-1.1-1.7-2.5c0.6-4.2,1-8.3,1.6-12.6c0.1-1.4-0.1-2.4-1.5-3.2c-2.4-1.5-4.4-3.2-6.4-5.2
			c-0.8-0.8-1.6-1.1-2.7-0.7c-4.7,1.6-9.4,3-14.1,4.6c-2.1-4.1-4.3-8.1-6.4-12.2c3.7-2.9,7.4-5.7,11.1-8.5c1.3-0.9,1.7-2.1,1.4-3.7
			c-0.6-2.5-0.9-5.1-0.7-7.6c0.1-1.4-0.5-2.2-1.7-2.8c-3.8-1.9-7.6-3.9-11.4-5.8c-1.1-0.6-1.4-1.2-1-2.4c1.1-3.2,2.1-6.4,3-9.6
			c0.4-1.4,1.2-1.9,2.6-1.6c4.1,0.7,8.3,1.1,12.3,1.7c1.3,0.2,2.2-0.1,2.8-1.3c1.4-2.3,3.1-4.4,5.1-6.2c1.1-1.1,1.4-2.1,0.9-3.5
			c-1.5-4.5-3-9.1-4.5-13.6C370.9,569,374.9,566.8,379,564.7z M407.3,633.6c8.4-3.6,13.7-15.2,8.2-25.9c-4.9-9.2-16.5-12.9-25.7-8
			c-9.5,5-13.3,16.6-8.3,25.9C387.2,636.7,400.1,638.1,407.3,633.6z"/>
		<path id="XMLID_183_" class="st12" d="M509.4,618.4c2.3-1.9,4.7-3.8,6.9-5.9c1.3-1.1,2.3-1.1,3.5,0.1c1.6,1.4,3.3,2.8,4.9,4.1
			c1,0.8,1.2,1.5,0.5,2.7c-1.5,2.5-3,5.1-4.5,7.7c-0.7,1-0.7,1.9-0.1,3.1c1,1.6,1.9,3.3,2.7,5.1c0.6,1.1,1.3,1.7,2.6,1.7
			c2.8,0.2,5.6,0.4,8.6,0.6c1.5,0.1,2.2,0.7,2.3,2.2c0.1,2.2,0.3,4.4,0.6,6.6c0.2,1.4-0.4,2-1.7,2.4c-2.9,0.7-5.8,1.6-8.7,2.3
			c-1.3,0.3-1.8,1.1-2,2.2c-0.3,1.8-0.8,3.5-1.5,5c-0.6,1.4-0.4,2.4,0.5,3.5c1.9,2.2,3.8,4.4,5.7,6.6c0.9,1,1,1.9,0,2.8
			c-1.5,1.7-2.9,3.5-4.3,5.2c-0.8,1-1.6,1.2-2.8,0.5c-2.6-1.6-5.2-3-7.8-4.6c-1-0.7-1.9-0.7-3,0.1c-1.6,1.1-3.3,1.9-5,2.7
			c-1.1,0.3-1.5,1-1.5,2c-0.2,3-0.5,6.1-0.7,9c0,1.7-0.8,2.3-2.4,2.4c-2,0-4.1,0.2-6,0.6c-1.6,0.3-2.3-0.3-2.7-1.9
			c-0.7-2.8-1.6-5.5-2.2-8.2c-0.4-1.4-1-2.2-2.5-2.4c-1.7-0.4-3.3-0.9-4.9-1.5c-1.4-0.6-2.3-0.4-3.4,0.6c-2.2,1.9-4.4,3.8-6.6,5.7
			c-1,0.9-1.8,0.9-2.8,0c-1.7-1.5-3.3-2.9-5.1-4.2c-1.1-0.9-1.4-1.8-0.6-3.1c1.6-2.5,2.9-5.2,4.4-7.7c0.6-1.1,0.7-2.2-0.2-3.2
			c-1.1-1.5-1.9-3-2.5-4.8c-0.4-1.2-1.2-1.8-2.4-1.8c-3-0.2-6.1-0.5-9.2-0.8c-1.2-0.1-1.8-0.5-1.9-1.8c-0.2-2.3-0.3-4.5-0.6-6.7
			c-0.2-1.5,0.3-2.2,1.8-2.5c2.8-0.7,5.6-1.5,8.5-2.1c1.2-0.3,1.8-0.8,2.1-2.1c0.4-1.8,1-3.7,1.7-5.5c0.4-1.1,0.3-2-0.5-2.8
			c-2-2.2-3.8-4.6-5.7-6.8c-1.1-1.1-0.9-2,0.1-3.1c1.5-1.7,2.9-3.3,4.2-5.1c0.8-1,1.6-1.2,2.8-0.5c2.5,1.6,5.2,3,7.7,4.6
			c0.9,0.6,1.7,0.6,2.6,0c1.8-1.1,3.7-2,5.5-2.9c1-0.4,1.5-1.1,1.5-2.1c0.2-3,0.6-6.1,0.8-9.1c0.1-1.3,0.6-1.9,1.9-1.9
			c2.3-0.2,4.6-0.4,6.9-0.6c1.4-0.2,1.9,0.5,2.3,1.7c0.7,2.8,1.5,5.6,2.1,8.3c0.4,1.4,1.1,2.1,2.5,2.4c1.8,0.3,3.5,0.9,5.2,1.7
			C507.7,618.9,508.7,619,509.4,618.4z M501.9,659.6c7.3-3.8,9.9-12.5,6.2-19.8c-3.8-7.3-12.5-10-19.7-6.2s-9.9,12.7-6.3,19.8
			C485.8,660.7,494.6,663.5,501.9,659.6z"/>
	</g>
	<g id="XMLID_27_">
		<path id="XMLID_214_" class="st4" d="M235.8,665.9h-85.6c-9.5,0-17.2-7.7-17.2-17.2V458.9c0-9.5,7.7-17.2,17.2-17.2h85.6
			c9.5,0,17.2,7.7,17.2,17.2v189.7C253,658.1,245.3,665.9,235.8,665.9z"/>
		<rect id="XMLID_213_" x="139.6" y="473.5" class="st12" width="106.7" height="158.7"/>
		<circle id="XMLID_212_" class="st4" cx="193" cy="649.4" r="9.5"/>
		
			<linearGradient id="XMLID_149_" gradientUnits="userSpaceOnUse" x1="188.4899" y1="338.1524" x2="198.6022" y2="325.512" gradientTransform="matrix(1 0 0 -1 0 982)">
			<stop  offset="0" style="stop-color:#A4A7A9"/>
			<stop  offset="0.3169" style="stop-color:#E9EAEB"/>
			<stop  offset="0.509" style="stop-color:#F1F0F0"/>
			<stop  offset="0.6749" style="stop-color:#F0EFF0"/>
			<stop  offset="1" style="stop-color:#676868"/>
		</linearGradient>
		<path id="XMLID_211_" class="st31" d="M193,659.8c-5.7,0-10.3-4.6-10.3-10.3s4.6-10.3,10.3-10.3c5.7,0,10.3,4.6,10.3,10.3
			C203.3,655.1,198.7,659.8,193,659.8z M193,640.8c-4.8,0-8.6,3.9-8.6,8.6c0,4.8,3.9,8.6,8.6,8.6c4.8,0,8.6-3.9,8.6-8.6
			C201.6,644.7,197.7,640.8,193,640.8z"/>
		
			<linearGradient id="XMLID_150_" gradientUnits="userSpaceOnUse" x1="176.7644" y1="522.5261" x2="209.9534" y2="522.5261" gradientTransform="matrix(1 0 0 -1 0 982)">
			<stop  offset="0" style="stop-color:#A4A7A9"/>
			<stop  offset="1" style="stop-color:#F1F0F0"/>
		</linearGradient>
		<path id="XMLID_210_" class="st32" d="M208.5,461.1h-30.3c-0.8,0-1.4-0.6-1.4-1.4v-0.3c0-0.8,0.6-1.4,1.4-1.4h30.3
			c0.8,0,1.4,0.6,1.4,1.4v0.3C210,460.4,209.3,461.1,208.5,461.1z"/>
		
			<linearGradient id="XMLID_151_" gradientUnits="userSpaceOnUse" x1="162.1582" y1="524.4993" x2="165.3169" y2="520.551" gradientTransform="matrix(1 0 0 -1 0 982)">
			<stop  offset="0" style="stop-color:#A4A7A9"/>
			<stop  offset="1" style="stop-color:#F1F0F0"/>
		</linearGradient>
		<circle id="XMLID_209_" class="st33" cx="163.7" cy="459.5" r="2.5"/>
		<rect id="XMLID_171_" x="139.6" y="473.5" class="st22" width="106.7" height="21.8"/>
		<rect id="XMLID_19_" x="165.3" y="479.7" class="st34" width="55.3" height="9.4"/>
		<rect id="XMLID_20_" x="146.7" y="503.9" class="st16" width="39.8" height="79.4"/>
		<rect id="XMLID_21_" x="192" y="504.6" class="st0" width="47.7" height="24.7"/>
		<rect id="XMLID_22_" x="192" y="535.9" class="st18" width="20.5" height="90.7"/>
		<rect id="XMLID_26_" x="219.2" y="535.9" class="st17" width="20.5" height="90.7"/>
		<rect id="XMLID_25_" x="146.7" y="589.3" class="st0" width="39.8" height="37.3"/>
	</g>
</g>
</svg>
